<svg width="121" height="100" viewBox="0 0 121 100" fill="none" xmlns="http://www.w3.org/2000/svg">
<path d="M0 92.9958C0 96.8877 2.97862 99.9321 6.6393 99.9321H113.387C117.047 99.9321 120.027 96.8877 120.027 92.9958V26.3408H0V92.9958ZM107.536 89.3415H78.2077C77.1576 89.3415 76.3069 88.4908 76.3069 87.4406C76.3069 86.3905 77.1576 85.5397 78.2077 85.5397H107.536C108.586 85.5397 109.437 86.3905 109.437 87.4406C109.437 88.4908 108.586 89.3415 107.536 89.3415ZM107.536 79.0224H78.2077C77.1576 79.0224 76.3069 78.1717 76.3069 77.1215C76.3069 76.0714 77.1576 75.2207 78.2077 75.2207H107.536C108.586 75.2207 109.437 76.0714 109.437 77.1215C109.437 78.1717 108.586 79.0224 107.536 79.0224ZM109.437 66.5309C109.437 67.5811 108.586 68.4318 107.536 68.4318H78.2077C77.1576 68.4318 76.3069 67.5811 76.3069 66.5309C76.3069 65.4808 77.1576 64.63 78.2077 64.63H107.536C108.586 64.63 109.437 65.4808 109.437 66.5309ZM77.6646 54.3109H92.057C93.1072 54.3109 93.9579 55.1617 93.9579 56.2118C93.9579 57.262 93.1072 58.1127 92.057 58.1127H77.6646C76.6145 58.1127 75.7637 57.262 75.7637 56.2118C75.7637 55.1617 76.6145 54.3109 77.6646 54.3109ZM10.8622 64.0243C10.8452 63.5353 11.0308 63.0612 11.3745 62.7132C11.7182 62.3653 12.1903 62.1754 12.6793 62.186H15.7502V55.9626C15.7915 54.8912 16.6709 54.0426 17.7433 54.0394H24.4399V35.8092C24.4643 34.758 25.3341 33.9242 26.3854 33.9444H50.9717C52.0303 33.921 52.9118 34.7516 52.9532 35.8092V47.2505H66.6211C67.6712 47.2505 68.4318 48.1766 68.4318 49.2267V88.0198C68.4509 88.5099 68.2684 88.9872 67.9258 89.3394C67.5842 89.6926 67.1122 89.8889 66.6211 89.8846H12.6793C12.1881 89.8899 11.715 89.6926 11.3724 89.3404C11.0287 88.9883 10.8442 88.5109 10.8622 88.0198V64.0243Z" fill="#0A0A5A"/>
<path d="M24.4399 57.8411H19.5519V64.0242C19.5519 65.0733 18.7914 65.9877 17.7433 65.9877H14.664V86.0827H24.4399V57.8411Z" fill="#0A0A5A"/>
<path d="M49.1514 37.7461H28.2417V55.6984C28.2417 55.7854 28.2618 55.8724 28.2618 55.9625C28.2618 56.0527 28.2417 56.1397 28.2417 56.2267V86.0828H49.1514V37.7461ZM35.5737 79.1433C35.5737 80.1935 34.7229 81.0442 33.6728 81.0442C32.6226 81.0442 31.7719 80.1935 31.7719 79.1433V75.4275C31.7719 74.3773 32.6226 73.5266 33.6728 73.5266C34.7229 73.5266 35.5737 74.3773 35.5737 75.4275V79.1433ZM35.5737 69.3186C35.5737 70.3687 34.7229 71.2194 33.6728 71.2194C32.6226 71.2194 31.7719 70.3687 31.7719 69.3186V65.6027C31.7719 64.5526 32.6226 63.7018 33.6728 63.7018C34.7229 63.7018 35.5737 64.5526 35.5737 65.6027V69.3186ZM35.5737 59.4949C35.5737 60.544 34.7229 61.3957 33.6728 61.3957C32.6226 61.3957 31.7719 60.544 31.7719 59.4949V55.7769C31.7719 54.7278 32.6226 53.876 33.6728 53.876C34.7229 53.876 35.5737 54.7278 35.5737 55.7769V59.4949ZM35.5737 49.6701C35.5737 50.7192 34.7229 51.571 33.6728 51.571C32.6226 51.571 31.7719 50.7192 31.7719 49.6701V45.9532C31.7719 44.903 32.6226 44.0523 33.6728 44.0523C34.7229 44.0523 35.5737 44.903 35.5737 45.9532V49.6701ZM45.3496 79.1433C45.3496 80.1935 44.4989 81.0442 43.4488 81.0442C42.3986 81.0442 41.5479 80.1935 41.5479 79.1433V75.4275C41.5479 74.3773 42.3986 73.5266 43.4488 73.5266C44.4989 73.5266 45.3496 74.3773 45.3496 75.4275V79.1433ZM45.3496 69.3186C45.3496 70.3687 44.4989 71.2194 43.4488 71.2194C42.3986 71.2194 41.5479 70.3687 41.5479 69.3186V65.6027C41.5479 64.5526 42.3986 63.7018 43.4488 63.7018C44.4989 63.7018 45.3496 64.5526 45.3496 65.6027V69.3186ZM45.3496 59.4949C45.3496 60.544 44.4989 61.3957 43.4488 61.3957C42.3986 61.3957 41.5479 60.544 41.5479 59.4949V55.7769C41.5479 54.7278 42.3986 53.876 43.4488 53.876C44.4989 53.876 45.3496 54.7278 45.3496 55.7769V59.4949ZM45.3496 49.6701C45.3496 50.7192 44.4989 51.571 43.4488 51.571C42.3986 51.571 41.5479 50.7192 41.5479 49.6701V45.9532C41.5479 44.903 42.3986 44.0523 43.4488 44.0523C44.4989 44.0523 45.3496 44.903 45.3496 45.9532V49.6701Z" fill="#0A0A5A"/>
<path d="M14.701 11.4159C14.701 9.16707 13.0038 7.34363 10.9088 7.34363C8.81383 7.34363 7.11661 9.16707 7.11661 11.4159C7.11661 13.6647 8.81383 15.4871 10.9088 15.4871C13.0038 15.4871 14.701 13.6647 14.701 11.4159Z" fill="#0A0A5A"/>
<path d="M64.6299 51.0522H52.9531V86.0828H64.6299V51.0522ZM59.6624 82.0095H57.5918C56.5427 82.0095 55.6909 81.1587 55.6909 80.1086C55.6909 79.0584 56.5427 78.2077 57.5918 78.2077H59.6624C60.7115 78.2077 61.5632 79.0584 61.5632 80.1086C61.5632 81.1587 60.7115 82.0095 59.6624 82.0095ZM59.6624 76.3068H57.5918C56.5427 76.3068 55.6909 75.4561 55.6909 74.4059C55.6909 73.3558 56.5427 72.505 57.5918 72.505H59.6624C60.7115 72.505 61.5632 73.3558 61.5632 74.4059C61.5632 75.4561 60.7115 76.3068 59.6624 76.3068ZM59.6624 70.3326H57.5918C56.5427 70.3326 55.6909 69.4819 55.6909 68.4317C55.6909 67.3816 56.5427 66.5308 57.5918 66.5308H59.6624C60.7115 66.5308 61.5632 67.3816 61.5632 68.4317C61.5632 69.4819 60.7115 70.3326 59.6624 70.3326ZM59.6624 64.63H57.5918C56.5427 64.63 55.6909 63.7792 55.6909 62.7291C55.6909 61.6789 56.5427 60.8282 57.5918 60.8282H59.6624C60.7115 60.8282 61.5632 61.6789 61.5632 62.7291C61.5632 63.7792 60.7115 64.63 59.6624 64.63ZM59.6624 58.9273H57.5918C56.5427 58.9273 55.6909 58.0766 55.6909 57.0264C55.6909 55.9763 56.5427 55.1256 57.5918 55.1256H59.6624C60.7115 55.1256 61.5632 55.9763 61.5632 57.0264C61.5632 58.0766 60.7115 58.9273 59.6624 58.9273Z" fill="#0A0A5A"/>
<path d="M51.7077 11.4159C51.7077 9.16707 50.0095 7.34363 47.9155 7.34363C45.8205 7.34363 44.1222 9.16707 44.1222 11.4159C44.1222 13.6647 45.8205 15.4871 47.9155 15.4871C50.0095 15.4871 51.7077 13.6647 51.7077 11.4159Z" fill="#0A0A5A"/>
<path d="M29.4117 7.34363C27.321 7.34363 25.6195 9.17026 25.6195 11.4159C25.6195 13.6605 27.321 15.4871 29.4117 15.4871C31.5035 15.4871 33.205 13.6605 33.205 11.4159C33.205 9.17026 31.5035 7.34363 29.4117 7.34363Z" fill="#0A0A5A"/>
<path d="M113.387 0H6.6393C2.97862 0 0 3.04438 0 6.93631V22.539H120.027V6.93631C120.027 3.04438 117.047 0 113.387 0ZM10.9089 19.2889C6.72204 19.2889 3.31488 15.7565 3.31488 11.4159C3.31488 7.07421 6.72204 3.54188 10.9089 3.54188C15.0967 3.54188 18.5028 7.07421 18.5028 11.4159C18.5028 15.7565 15.0967 19.2889 10.9089 19.2889ZM29.4117 19.2889C25.2249 19.2889 21.8177 15.7565 21.8177 11.4159C21.8177 7.07421 25.2249 3.54188 29.4117 3.54188C33.5996 3.54188 37.0067 7.07421 37.0067 11.4159C37.0067 15.7565 33.5996 19.2889 29.4117 19.2889ZM47.9156 19.2889C43.7277 19.2889 40.3206 15.7565 40.3206 11.4159C40.3206 7.07421 43.7277 3.54188 47.9156 3.54188C52.1024 3.54188 55.5096 7.07421 55.5096 11.4159C55.5096 15.7565 52.1024 19.2889 47.9156 19.2889Z" fill="#0A0A5A"/>
</svg>
