<svg width="100" height="100" viewBox="0 0 100 100" fill="none" xmlns="http://www.w3.org/2000/svg">
<path d="M88.5417 0H11.4583C5.1375 0 0 5.1375 0 11.4583V88.5417C0 94.8625 5.1375 100 11.4583 100H88.5417C94.8625 100 100 94.8625 100 88.5417V11.4583C100 5.1375 94.8625 0 88.5417 0Z" fill="#56AFDE"/>
<path d="M74.5375 53.8208C74.7333 52.5708 74.8292 51.2917 74.8292 50C74.8292 48.7208 74.7333 47.45 74.5417 46.2083L80.8583 41.2542C82.3375 40.0917 82.75 37.9792 81.8083 36.3417L77.7333 29.2833C76.7875 27.6458 74.75 26.9417 72.9958 27.65L65.5583 30.65C63.525 29.0125 61.325 27.7375 58.9875 26.85L57.8583 18.9042C57.5917 17.0333 55.9667 15.625 54.075 15.625H45.9333C44.0458 15.625 42.4167 17.0333 42.15 18.9083L41.0167 26.8542C38.6792 27.7542 36.4542 29.0417 34.4792 30.6458L27.0042 27.6458C25.25 26.9458 23.2167 27.6458 22.2708 29.2792L18.2 36.3375C17.2542 37.9792 17.6667 40.0958 19.1583 41.2583L25.4625 46.1792C25.2667 47.4292 25.1708 48.7083 25.1708 50C25.1708 51.2792 25.2667 52.55 25.4583 53.7917L19.1417 58.7458C17.6625 59.9083 17.25 62.0208 18.1917 63.6583L22.2667 70.7167C23.2125 72.3542 25.25 73.0542 27.0042 72.35L34.4417 69.35C36.475 70.9875 38.675 72.2625 41.0125 73.15L42.1417 81.0958C42.4083 82.9667 44.0333 84.375 45.925 84.375H54.0667C55.9542 84.375 57.5833 82.9667 57.85 81.0917L58.9792 73.1458C61.3167 72.2458 63.5417 70.9583 65.5167 69.3542L72.9917 72.3542C74.7542 73.0625 76.7792 72.3583 77.725 70.7208L81.7958 63.6625C82.7417 62.0208 82.3292 59.9042 80.8375 58.7417L74.5375 53.8208Z" fill="#FAFAFA"/>
<path d="M50 59.375C55.1777 59.375 59.375 55.1777 59.375 50C59.375 44.8223 55.1777 40.625 50 40.625C44.8223 40.625 40.625 44.8223 40.625 50C40.625 55.1777 44.8223 59.375 50 59.375Z" fill="#56AFDE"/>
<path d="M50 62.5C43.1083 62.5 37.5 56.8917 37.5 50C37.5 43.1083 43.1083 37.5 50 37.5C56.8917 37.5 62.5 43.1083 62.5 50C62.5 56.8917 56.8917 62.5 50 62.5ZM50 43.75C46.5542 43.75 43.75 46.5542 43.75 50C43.75 53.4458 46.5542 56.25 50 56.25C53.4458 56.25 56.25 53.4458 56.25 50C56.25 46.5542 53.4458 43.75 50 43.75Z" fill="#0A0A5A"/>
<path d="M54.3125 87.5H45.6875C43.1458 87.5 40.95 85.6 40.5916 83.0792L39.4833 75.3C37.3208 74.4167 35.2708 73.225 33.3458 71.75L26.0625 74.6875C23.6791 75.6417 20.9416 74.6917 19.6791 72.4792L15.3708 65.0125C14.0916 62.8083 14.6458 59.9625 16.6583 58.3875L22.8333 53.5375C22.6833 52.3792 22.6125 51.1958 22.6125 50C22.6125 48.7917 22.6916 47.6 22.8416 46.4333L16.6666 41.6167C14.6583 40.0417 14.1041 37.1917 15.375 34.9833L19.6833 27.5125C20.9583 25.3083 23.7 24.3667 26.0541 25.3042L33.375 28.2458C35.2541 26.7958 37.3208 25.6 39.4833 24.7042L40.5916 16.9208C40.95 14.4 43.1416 12.5 45.6875 12.5H54.3125C56.8541 12.5 59.05 14.4 59.4083 16.9208L60.5166 24.6958C62.6791 25.5833 64.7333 26.7708 66.6541 28.25L73.9375 25.3125C76.3166 24.3542 79.0583 25.3125 80.3208 27.5208L84.6291 34.9875C85.9083 37.1917 85.3541 40.0375 83.3416 41.6125L77.1666 46.4625C77.3166 47.6208 77.3916 48.8042 77.3916 50C77.3916 51.2083 77.3125 52.4 77.1625 53.5667L83.3333 58.3833C85.3416 59.9542 85.8958 62.8083 84.625 65.0125L80.3166 72.4833C79.0416 74.6875 76.3 75.6333 73.9458 74.6917L66.6208 71.75C64.7458 73.2 62.6791 74.3958 60.5166 75.2917L59.4083 83.075C59.05 85.6 56.8583 87.5 54.3125 87.5ZM46.6416 81.25H53.3541L54.5875 72.5708C54.7541 71.3875 55.5791 70.4042 56.7166 70.0375C59.3416 69.1833 61.85 67.7292 63.9666 65.8333C64.8583 65.0333 66.1291 64.8167 67.2166 65.2583L75.375 68.5333L78.7291 62.7167L71.8583 57.3542C71.0958 56.7625 70.6541 55.8542 70.6541 54.8917V54.85C70.6541 54.6375 70.675 54.425 70.7208 54.2167C70.9958 52.8667 71.1416 51.45 71.1416 49.9958C71.1416 48.5417 71 47.125 70.7208 45.775C70.4791 44.6125 70.9208 43.4167 71.85 42.6833L78.7333 37.2792L75.3791 31.4625L67.2625 34.7333C66.1625 35.1667 64.9166 34.9583 64.0291 34.1792C61.8083 32.2208 59.3541 30.8 56.7291 29.9583C55.5875 29.5917 54.7541 28.6083 54.5875 27.4208L53.3583 18.75H46.6458L45.4125 27.4292C45.2458 28.6125 44.4208 29.5958 43.2833 29.9625C40.6541 30.8167 38.1458 32.2708 36.0291 34.1667C35.15 34.9708 33.875 35.1917 32.7791 34.7417L24.6208 31.4667L21.2666 37.2792L28.1375 42.6417C28.9 43.2333 29.3416 44.1417 29.3416 45.1042C29.3416 45.3167 29.3208 45.5667 29.275 45.7792C29.0041 47.1292 28.8625 48.5458 28.8625 50C28.8625 51.4542 29.0041 52.8708 29.2833 54.2208C29.525 55.3833 29.0833 56.5792 28.1541 57.3125L21.2708 62.7167L24.625 68.5333L32.7416 65.2625C33.8333 64.825 35.0833 65.0333 35.975 65.8167C38.1958 67.7792 40.6541 69.2 43.275 70.0375C44.4166 70.4042 45.25 71.3875 45.4166 72.575L46.6416 81.25ZM79.4875 63.3083H79.5291H79.4875Z" fill="#0A0A5A"/>
</svg>
